<svg width="101" height="44" viewBox="0 0 101 44" fill="none" xmlns="http://www.w3.org/2000/svg">
<g clip-path="url(#clip0_22715_6159)">
<path d="M27.1135 12.3054C26.9445 12.1374 26.7455 12.0529 26.5155 12.0529C26.401 12.0529 26.1595 12.1469 25.7925 12.3324C25.425 12.5184 25.035 12.7254 24.6245 12.9564C24.213 13.1859 23.726 13.3939 23.164 13.5799C22.6025 13.7654 22.0825 13.8594 21.604 13.8594C21.162 13.8594 20.772 13.7754 20.436 13.6069C19.3215 13.0849 18.352 12.6954 17.529 12.4384C16.706 12.1819 15.821 12.0529 14.8735 12.0529C13.2375 12.0529 11.374 12.5849 9.285 13.6469C8.854 13.8619 8.545 14.0284 8.345 14.1504L8.1465 12.6949C8.595 12.3054 8.8845 11.7379 8.8845 11.0974C8.8845 9.9239 7.9335 8.9729 6.76 8.9729C5.5865 8.9729 4.6355 9.9239 4.6355 11.0974C4.6355 11.8629 5.0445 12.5284 5.6515 12.9024L8.5215 33.9474C8.607 34.5739 9.143 35.0284 9.7585 35.0284C9.8145 35.0284 9.8715 35.0249 9.929 35.0174C10.613 34.9234 11.092 34.2939 10.9985 33.6099L9.845 25.1514C11.938 24.1129 13.7485 23.5894 15.2715 23.5894C15.918 23.5894 16.5485 23.6859 17.163 23.8809C17.778 24.0764 18.2895 24.2884 18.6965 24.5179C19.1035 24.7479 19.584 24.9609 20.1365 25.1549C20.69 25.3499 21.2365 25.4474 21.776 25.4474C23.139 25.4474 24.7715 24.9339 26.674 23.9074C26.913 23.7834 27.088 23.6614 27.1985 23.5419C27.309 23.4224 27.3645 23.2524 27.3645 23.0314V12.9029C27.3645 12.6734 27.281 12.4739 27.1135 12.3054Z" fill="#F0145A"/>
<path d="M51.5127 9.8V35H45.6807V14.48H40.6407V9.8H51.5127ZM66.6903 35.432C64.6023 35.432 62.7423 34.916 61.1103 33.884C59.4783 32.852 58.1943 31.364 57.2583 29.42C56.3463 27.452 55.8903 25.112 55.8903 22.4C55.8903 19.688 56.3463 17.36 57.2583 15.416C58.1943 13.448 59.4783 11.948 61.1103 10.916C62.7423 9.884 64.6023 9.368 66.6903 9.368C68.7783 9.368 70.6383 9.884 72.2703 10.916C73.9023 11.948 75.1743 13.448 76.0863 15.416C77.0223 17.36 77.4903 19.688 77.4903 22.4C77.4903 25.112 77.0223 27.452 76.0863 29.42C75.1743 31.364 73.9023 32.852 72.2703 33.884C70.6383 34.916 68.7783 35.432 66.6903 35.432ZM66.6903 30.5C68.2263 30.5 69.4263 29.84 70.2903 28.52C71.1783 27.2 71.6223 25.16 71.6223 22.4C71.6223 19.64 71.1783 17.6 70.2903 16.28C69.4263 14.96 68.2263 14.3 66.6903 14.3C65.1783 14.3 63.9783 14.96 63.0903 16.28C62.2263 17.6 61.7943 19.64 61.7943 22.4C61.7943 25.16 62.2263 27.2 63.0903 28.52C63.9783 29.84 65.1783 30.5 66.6903 30.5ZM98.4285 24.596H92.1645V30.716H87.5205V24.596H81.2925V20.204H87.5205V14.084H92.1645V20.204H98.4285V24.596Z" fill="url(#paint0_linear_22715_6159)"/>
</g>
<defs>
<linearGradient id="paint0_linear_22715_6159" x1="40.4766" y1="12.32" x2="101.072" y2="12.5097" gradientUnits="userSpaceOnUse">
<stop stop-color="#F0145A"/>
<stop offset="1" stop-color="#EF8080"/>
</linearGradient>
<clipPath id="clip0_22715_6159">
<rect width="101" height="44" fill="white"/>
</clipPath>
</defs>
</svg>
