<svg width="108" height="44" viewBox="0 0 108 44" fill="none" xmlns="http://www.w3.org/2000/svg">
<g clip-path="url(#clip0_22715_6154)">
<g filter="url(#filter0_d_22715_6154)">
<path d="M17.232 24.332V23.774C17.232 23.0935 16.6805 22.542 16.0005 22.542C15.32 22.542 14.7685 23.0935 14.7685 23.774V24.332C14.7685 25.0125 15.32 25.564 16.0005 25.564C16.68 25.564 17.232 25.0125 17.232 24.332Z" fill="#F0145A"/>
<path d="M18.077 25.0136C17.804 25.9071 16.9815 26.5631 16.0005 26.5631C15.019 26.5631 14.1965 25.9071 13.9235 25.0136H5.43904C4.90354 25.0136 4.39754 24.8891 3.94354 24.6731V30.3066C3.94354 31.4066 4.84354 32.3066 5.94354 32.3066H26.0565C27.1565 32.3066 28.0565 31.4066 28.0565 30.3066V24.6736C27.602 24.8896 27.0965 25.0141 26.561 25.0141H18.077V25.0136Z" fill="#F0145A"/>
<path d="M26.4775 14.8976H21.677C21.387 13.0846 19.8165 11.6936 17.923 11.6936H14.0765C12.183 11.6936 10.613 13.0846 10.3225 14.8976H5.52253C4.37653 14.8976 3.43903 15.7976 3.43903 16.8976V21.5141C3.43903 22.6186 4.33453 23.5141 5.43903 23.5141H13.829C13.8575 22.9386 14.1045 22.4216 14.495 22.0476C14.507 22.0361 14.521 22.0271 14.5335 22.0161C14.62 21.9366 14.71 21.8616 14.8085 21.7966C14.8435 21.7731 14.8835 21.7571 14.92 21.7361C15.001 21.6896 15.081 21.6411 15.1685 21.6051C15.237 21.5766 15.311 21.5601 15.383 21.5386C15.445 21.5201 15.504 21.4956 15.5685 21.4826C15.708 21.4541 15.8525 21.4391 16 21.4391C16.148 21.4391 16.292 21.4546 16.4315 21.4826C16.4955 21.4956 16.5545 21.5201 16.6165 21.5386C16.6885 21.5601 16.7625 21.5766 16.831 21.6056C16.918 21.6416 16.9975 21.6896 17.0785 21.7361C17.1155 21.7576 17.1555 21.7736 17.191 21.7971C17.2895 21.8616 17.379 21.9366 17.4655 22.0161C17.478 22.0276 17.4925 22.0366 17.5045 22.0486C17.8955 22.4226 18.142 22.9396 18.1705 23.5151H26.5605C27.665 23.5151 28.5605 22.6196 28.5605 21.5151V16.8986C28.561 15.7976 27.6235 14.8976 26.4775 14.8976ZM12.248 14.8976C12.503 14.1271 13.2215 13.5656 14.0765 13.5656H17.923C18.778 13.5656 19.4965 14.1271 19.7515 14.8976H12.248Z" fill="#F0145A"/>
</g>
<path d="M53.4612 20.06C55.6692 20.42 57.3612 21.248 58.5372 22.544C59.7132 23.816 60.3012 25.4 60.3012 27.296C60.3012 28.76 59.9172 30.116 59.1492 31.364C58.3812 32.588 57.2052 33.572 55.6212 34.316C54.0612 35.06 52.1412 35.432 49.8612 35.432C48.0852 35.432 46.3332 35.204 44.6052 34.748C42.9012 34.268 41.4492 33.596 40.2492 32.732L42.5172 28.268C43.4772 28.988 44.5812 29.552 45.8292 29.96C47.1012 30.344 48.3972 30.536 49.7172 30.536C51.1812 30.536 52.3332 30.26 53.1732 29.708C54.0132 29.132 54.4332 28.328 54.4332 27.296C54.4332 25.232 52.8612 24.2 49.7172 24.2H47.0532V20.348L52.2372 14.48H41.5092V9.8H59.1492V13.58L53.4612 20.06ZM73.7938 35.432C71.7058 35.432 69.8458 34.916 68.2138 33.884C66.5818 32.852 65.2978 31.364 64.3618 29.42C63.4498 27.452 62.9938 25.112 62.9938 22.4C62.9938 19.688 63.4498 17.36 64.3618 15.416C65.2978 13.448 66.5818 11.948 68.2138 10.916C69.8458 9.884 71.7058 9.368 73.7938 9.368C75.8818 9.368 77.7418 9.884 79.3738 10.916C81.0058 11.948 82.2778 13.448 83.1898 15.416C84.1258 17.36 84.5938 19.688 84.5938 22.4C84.5938 25.112 84.1258 27.452 83.1898 29.42C82.2778 31.364 81.0058 32.852 79.3738 33.884C77.7418 34.916 75.8818 35.432 73.7938 35.432ZM73.7938 30.5C75.3298 30.5 76.5298 29.84 77.3938 28.52C78.2818 27.2 78.7258 25.16 78.7258 22.4C78.7258 19.64 78.2818 17.6 77.3938 16.28C76.5298 14.96 75.3298 14.3 73.7938 14.3C72.2818 14.3 71.0818 14.96 70.1938 16.28C69.3298 17.6 68.8978 19.64 68.8978 22.4C68.8978 25.16 69.3298 27.2 70.1938 28.52C71.0818 29.84 72.2818 30.5 73.7938 30.5ZM105.532 24.596H99.2681V30.716H94.6241V24.596H88.3961V20.204H94.6241V14.084H99.2681V20.204H105.532V24.596Z" fill="url(#paint0_linear_22715_6154)"/>
</g>
<defs>
<filter id="filter0_d_22715_6154" x="-4" y="6" width="40" height="40" filterUnits="userSpaceOnUse" color-interpolation-filters="sRGB">
<feFlood flood-opacity="0" result="BackgroundImageFix"/>
<feColorMatrix in="SourceAlpha" type="matrix" values="0 0 0 0 0 0 0 0 0 0 0 0 0 0 0 0 0 0 127 0" result="hardAlpha"/>
<feOffset dy="4"/>
<feGaussianBlur stdDeviation="2"/>
<feComposite in2="hardAlpha" operator="out"/>
<feColorMatrix type="matrix" values="0 0 0 0 0 0 0 0 0 0 0 0 0 0 0 0 0 0 0.25 0"/>
<feBlend mode="normal" in2="BackgroundImageFix" result="effect1_dropShadow_22715_6154"/>
<feBlend mode="normal" in="SourceGraphic" in2="effect1_dropShadow_22715_6154" result="shape"/>
</filter>
<linearGradient id="paint0_linear_22715_6154" x1="40.5312" y1="12.32" x2="108.08" y2="12.5557" gradientUnits="userSpaceOnUse">
<stop stop-color="#F0145A"/>
<stop offset="1" stop-color="#EF8080"/>
</linearGradient>
<clipPath id="clip0_22715_6154">
<rect width="108" height="44" fill="white"/>
</clipPath>
</defs>
</svg>
