<svg width="132" height="44" viewBox="0 0 132 44" fill="none" xmlns="http://www.w3.org/2000/svg">
<g clip-path="url(#clip0_22715_6149)">
<path d="M16.097 9.55298C9.25252 9.55298 3.68402 15.1215 3.68402 21.966C3.68402 28.811 9.25252 34.38 16.097 34.38C22.9415 34.38 28.51 28.811 28.51 21.966C28.5105 15.1215 22.942 9.55298 16.097 9.55298ZM22.9555 21.0585V21.059L19.362 23.659L20.746 27.889C20.768 27.955 20.7795 28.0255 20.7795 28.0975C20.7795 28.467 20.4805 28.767 20.111 28.767C19.964 28.767 19.829 28.72 19.719 28.6405L16.0975 26.021L12.476 28.6405C12.366 28.72 12.231 28.767 12.0845 28.767C11.7145 28.767 11.415 28.4675 11.415 28.0975C11.415 28.025 11.427 27.955 11.449 27.889L12.8335 23.659L9.24002 21.059V21.0585C9.07202 20.9375 8.96302 20.74 8.96302 20.517C8.96302 20.1475 9.26202 19.8485 9.63202 19.8485H14.0805L15.458 15.638C15.542 15.3645 15.7965 15.1655 16.098 15.1655C16.399 15.1655 16.654 15.3645 16.7375 15.638L18.115 19.8485H22.5635C22.933 19.8485 23.2325 20.1475 23.2325 20.517C23.232 20.74 23.123 20.9375 22.9555 21.0585Z" fill="#F0145A"/>
<path d="M50.0596 19.268C53.6116 19.268 56.2276 19.976 57.9076 21.392C59.6116 22.808 60.4636 24.704 60.4636 27.08C60.4636 28.616 60.0796 30.02 59.3116 31.292C58.5436 32.54 57.3676 33.548 55.7836 34.316C54.2236 35.06 52.2916 35.432 49.9876 35.432C48.2116 35.432 46.4596 35.204 44.7316 34.748C43.0276 34.268 41.5756 33.596 40.3756 32.732L42.6796 28.268C43.6396 28.988 44.7436 29.552 45.9916 29.96C47.2396 30.344 48.5236 30.536 49.8436 30.536C51.3076 30.536 52.4596 30.248 53.2996 29.672C54.1396 29.096 54.5596 28.292 54.5596 27.26C54.5596 26.18 54.1156 25.364 53.2276 24.812C52.3636 24.26 50.8516 23.984 48.6916 23.984H42.2476L43.5436 9.8H58.9156V14.48H48.4036L48.0076 19.268H50.0596ZM73.6298 35.432C71.5418 35.432 69.6818 34.916 68.0498 33.884C66.4178 32.852 65.1338 31.364 64.1978 29.42C63.2858 27.452 62.8298 25.112 62.8298 22.4C62.8298 19.688 63.2858 17.36 64.1978 15.416C65.1338 13.448 66.4178 11.948 68.0498 10.916C69.6818 9.884 71.5418 9.368 73.6298 9.368C75.7178 9.368 77.5778 9.884 79.2098 10.916C80.8418 11.948 82.1138 13.448 83.0258 15.416C83.9618 17.36 84.4298 19.688 84.4298 22.4C84.4298 25.112 83.9618 27.452 83.0258 29.42C82.1138 31.364 80.8418 32.852 79.2098 33.884C77.5778 34.916 75.7178 35.432 73.6298 35.432ZM73.6298 30.5C75.1658 30.5 76.3658 29.84 77.2298 28.52C78.1178 27.2 78.5618 25.16 78.5618 22.4C78.5618 19.64 78.1178 17.6 77.2298 16.28C76.3658 14.96 75.1658 14.3 73.6298 14.3C72.1178 14.3 70.9178 14.96 70.0298 16.28C69.1658 17.6 68.7338 19.64 68.7338 22.4C68.7338 25.16 69.1658 27.2 70.0298 28.52C70.9178 29.84 72.1178 30.5 73.6298 30.5ZM98.0634 35.432C95.9754 35.432 94.1154 34.916 92.4834 33.884C90.8514 32.852 89.5674 31.364 88.6314 29.42C87.7194 27.452 87.2634 25.112 87.2634 22.4C87.2634 19.688 87.7194 17.36 88.6314 15.416C89.5674 13.448 90.8514 11.948 92.4834 10.916C94.1154 9.884 95.9754 9.368 98.0634 9.368C100.151 9.368 102.011 9.884 103.643 10.916C105.275 11.948 106.547 13.448 107.459 15.416C108.395 17.36 108.863 19.688 108.863 22.4C108.863 25.112 108.395 27.452 107.459 29.42C106.547 31.364 105.275 32.852 103.643 33.884C102.011 34.916 100.151 35.432 98.0634 35.432ZM98.0634 30.5C99.5994 30.5 100.799 29.84 101.663 28.52C102.551 27.2 102.995 25.16 102.995 22.4C102.995 19.64 102.551 17.6 101.663 16.28C100.799 14.96 99.5994 14.3 98.0634 14.3C96.5514 14.3 95.3514 14.96 94.4634 16.28C93.5994 17.6 93.1674 19.64 93.1674 22.4C93.1674 25.16 93.5994 27.2 94.4634 28.52C95.3514 29.84 96.5514 30.5 98.0634 30.5ZM129.802 24.596H123.538V30.716H118.894V24.596H112.666V20.204H118.894V14.084H123.538V20.204H129.802V24.596Z" fill="url(#paint0_linear_22715_6149)"/>
</g>
<defs>
<linearGradient id="paint0_linear_22715_6149" x1="40.7187" y1="12.32" x2="132.108" y2="12.7514" gradientUnits="userSpaceOnUse">
<stop stop-color="#F0145A"/>
<stop offset="1" stop-color="#EF8080"/>
</linearGradient>
<clipPath id="clip0_22715_6149">
<rect width="132" height="44" fill="white"/>
</clipPath>
</defs>
</svg>
