<svg width="318" height="60" viewBox="0 0 318 60" fill="none" xmlns="http://www.w3.org/2000/svg">
<g clip-path="url(#clip0_123815_97)">
<path d="M4.95672 0H0V35.7986H4.95672V22.5177C4.95672 20.2709 5.51557 18.4984 6.63326 17.2502C7.75095 16.002 9.2817 15.353 11.1769 15.353C12.8049 15.353 14.1655 15.9521 15.2589 17.1004C16.3523 18.2738 16.9112 19.7466 16.9112 21.5191V35.8236H21.8922V21.5191C21.8922 18.2238 20.9932 15.6276 19.1951 13.6804C17.3971 11.7332 15.0402 10.7596 12.1731 10.7596C11.347 10.7596 10.5209 10.8594 9.71906 11.0841C8.89294 11.3088 8.2369 11.5584 7.70235 11.833C7.16781 12.1076 6.65756 12.4072 6.1959 12.7567C5.73424 13.1062 5.41838 13.3558 5.27259 13.5056C5.1268 13.6554 5.00532 13.7552 4.95672 13.8301V0Z" fill="#F0145A"/>
<path d="M32.9726 0H27.8628V35.7689H32.9726V0Z" fill="#323264"/>
<path d="M63.1114 25.2933L63.3669 22.7383C63.3669 19.3148 62.2428 16.4532 59.9433 14.1538C57.6439 11.8544 54.7824 10.7302 51.3588 10.7302C47.9352 10.7302 44.9715 11.9566 42.5188 14.4093C40.0661 16.862 38.8397 19.7746 38.8397 23.2493C38.8397 26.8262 40.1172 29.8921 42.621 32.447C45.1248 35.002 48.1396 36.2794 51.6143 36.2794C52.9429 36.2794 54.1692 36.075 55.3956 35.7173C56.6219 35.3086 57.6439 34.8998 58.3593 34.491C59.1258 34.0311 59.8922 33.5201 60.5565 32.958C61.2208 32.3959 61.6807 31.9872 61.8851 31.7317C62.0895 31.4762 62.2428 31.3229 62.345 31.1696L59.0236 27.8482L58.2571 28.8191C57.7461 29.4322 56.8774 30.0454 55.6511 30.7097C54.3736 31.374 53.0451 31.6806 51.6143 31.6806C49.6215 31.6806 47.9352 31.0674 46.5045 29.7899C45.0737 28.5125 44.205 27.0306 43.9495 25.2933H63.1114ZM51.3588 15.0736C53.2494 15.0736 54.7824 15.6357 56.0599 16.7087C57.2862 17.8329 58.0527 19.2126 58.3593 20.9499H44.1539C44.6138 19.2126 45.4314 17.8329 46.7089 16.7087C47.9352 15.6357 49.5193 15.0736 51.3588 15.0736Z" fill="#323264"/>
<path d="M86.9429 34.2866C86.9429 36.5349 86.2786 38.3744 84.8989 39.8052C83.5704 41.1849 81.8841 41.9002 79.7891 41.9002C78.8693 41.9002 77.9496 41.7469 77.0809 41.4914C76.2122 41.2359 75.5479 40.9294 74.9859 40.5717C74.4238 40.214 73.9128 39.8563 73.4018 39.3964C72.9419 38.9365 72.6353 38.6299 72.482 38.4766C72.3287 38.3233 72.2265 38.17 72.1244 38.0679L68.803 41.3892L69.2117 41.9002C69.4672 42.2579 69.9271 42.7178 70.5403 43.2288C71.1535 43.6887 71.8689 44.1997 72.6864 44.7106C73.504 45.1705 74.526 45.5793 75.8034 45.937C77.0809 46.2947 78.4094 46.4991 79.7891 46.4991C83.2638 46.4991 86.1253 45.3238 88.5269 42.9733C90.8774 40.5717 92.0527 37.7102 92.0527 34.2355V11.2412H86.9429V13.7961L86.0742 13.0297C85.5121 12.5187 84.6434 12.0077 83.4171 11.4967C82.1907 10.9857 80.8622 10.7302 79.5336 10.7302C76.4166 10.7302 73.7595 11.9055 71.4601 14.3071C69.1606 16.7087 68.0365 19.5702 68.0365 22.9938C68.0365 26.4174 69.1606 29.2789 71.4601 31.6806C73.7595 34.0822 76.4166 35.2574 79.5336 35.2574C80.4023 35.2574 81.2199 35.1552 82.0885 34.9508C82.9061 34.6954 83.5704 34.4399 84.1325 34.1844C84.6945 33.9289 85.2055 33.6223 85.6654 33.2646C86.1253 32.9069 86.483 32.6514 86.5852 32.5492L86.9429 32.1915V34.2866ZM73.1463 22.9938C73.1463 20.8477 73.8106 19.0593 75.1903 17.5774C76.5699 16.0956 78.2051 15.3291 80.0446 15.3291C81.8841 15.3291 83.5193 16.0956 84.8989 17.5774C86.2275 19.0593 86.9429 20.8477 86.9429 22.9938C86.9429 25.14 86.2275 26.9284 84.8989 28.4103C83.5193 29.8921 81.8841 30.6586 80.0446 30.6586C78.2051 30.6586 76.5699 29.8921 75.1903 28.4103C73.8106 26.9284 73.1463 25.14 73.1463 22.9938Z" fill="#323264"/>
<path d="M118.724 35.7684V19.9279C118.724 17.3219 117.753 15.1247 115.863 13.3873C113.972 11.5989 111.519 10.7302 108.504 10.7302C107.329 10.7302 106.154 10.8835 105.03 11.1901C103.906 11.5478 102.986 11.9055 102.321 12.3143C101.657 12.7231 100.993 13.1829 100.38 13.745C99.7666 14.256 99.4089 14.6137 99.2045 14.8181C99.0512 15.0225 98.8979 15.1758 98.7957 15.3291L102.117 18.6505L102.781 17.7818C103.19 17.2197 103.906 16.7087 104.979 16.1467C106.052 15.5846 107.227 15.3291 108.504 15.3291C109.986 15.3291 111.213 15.789 112.183 16.6576C113.154 17.5263 113.614 18.6505 113.614 19.9279L104.672 21.4609C102.475 21.8186 100.686 22.6873 99.46 24.0669C98.1825 25.4466 97.5182 27.1328 97.5182 29.1256C97.5182 31.0163 98.3358 32.6514 99.971 34.0822C101.657 35.564 103.701 36.2794 106.205 36.2794C107.074 36.2794 107.891 36.1772 108.709 35.9217C109.577 35.7173 110.242 35.4618 110.804 35.2064C111.366 34.9509 111.877 34.6443 112.337 34.2866C112.797 33.9289 113.103 33.6734 113.308 33.5712C113.461 33.4179 113.563 33.2646 113.614 33.2135V35.7684H118.724ZM106.971 31.6806C105.643 31.6806 104.57 31.374 103.803 30.7608C102.986 30.1476 102.628 29.4322 102.628 28.6147C102.628 27.746 102.884 26.9795 103.446 26.4174C104.008 25.8554 104.774 25.4466 105.694 25.2933L113.614 24.0158V24.5268C113.614 26.8262 113.052 28.5636 111.877 29.841C110.702 31.0674 109.066 31.6806 106.971 31.6806Z" fill="#323264"/>
<path d="M130 0H124.89V35.7689H130V0Z" fill="#323264"/>
<path d="M0 53.1185H1.59915V58.7253H5.06396V60.0283H0V53.1185Z" fill="#323264"/>
<path d="M15.5016 58.5477H12.2934L11.6814 60.0283H10.0428L13.1226 53.1185H14.702L17.7917 60.0283H16.1136L15.5016 58.5477ZM14.9982 57.3335L13.9025 54.688L12.8067 57.3335H14.9982Z" fill="#323264"/>
<path d="M33.5121 53.1185L31.2516 60.0283H29.534L28.0138 55.3494L26.4443 60.0283H24.7366L22.4662 53.1185H24.1245L25.6842 57.9751L27.313 53.1185H28.7937L30.3731 58.0146L31.9821 53.1185H33.5121Z" fill="#323264"/>
<path d="M50.5232 60.1468C49.819 60.1468 49.1807 59.9954 48.6082 59.6927C48.0422 59.3834 47.5947 58.959 47.2657 58.4193C46.9432 57.8731 46.782 57.2578 46.782 56.5734C46.782 55.889 46.9432 55.277 47.2657 54.7373C47.5947 54.1911 48.0422 53.7667 48.6082 53.464C49.1807 53.1547 49.8223 53 50.5331 53C51.1319 53 51.6716 53.1053 52.152 53.3159C52.6389 53.5265 53.047 53.8292 53.376 54.224L52.3494 55.1717C51.8821 54.6321 51.303 54.3622 50.612 54.3622C50.1843 54.3622 49.8026 54.4577 49.467 54.6485C49.1313 54.8328 48.8681 55.0927 48.6773 55.4283C48.493 55.764 48.4009 56.1456 48.4009 56.5734C48.4009 57.0012 48.493 57.3828 48.6773 57.7185C48.8681 58.0541 49.1313 58.3173 49.467 58.5082C49.8026 58.6924 50.1843 58.7846 50.612 58.7846C51.303 58.7846 51.8821 58.5115 52.3494 57.9653L53.376 58.9129C53.047 59.3143 52.6389 59.6203 52.152 59.8309C51.665 60.0415 51.1221 60.1468 50.5232 60.1468Z" fill="#323264"/>
<path d="M62.5933 60.1468C61.876 60.1468 61.2278 59.9922 60.6487 59.6829C60.0761 59.3736 59.6253 58.9491 59.2963 58.4095C58.9738 57.8632 58.8126 57.2512 58.8126 56.5734C58.8126 55.8956 58.9738 55.2868 59.2963 54.7472C59.6253 54.201 60.0761 53.7733 60.6487 53.464C61.2278 53.1547 61.876 53 62.5933 53C63.3106 53 63.9555 53.1547 64.5281 53.464C65.1006 53.7733 65.5514 54.201 65.8804 54.7472C66.2095 55.2868 66.374 55.8956 66.374 56.5734C66.374 57.2512 66.2095 57.8632 65.8804 58.4095C65.5514 58.9491 65.1006 59.3736 64.5281 59.6829C63.9555 59.9922 63.3106 60.1468 62.5933 60.1468ZM62.5933 58.7846C63.0013 58.7846 63.3698 58.6924 63.6989 58.5082C64.0279 58.3173 64.2846 58.0541 64.4688 57.7185C64.6597 57.3828 64.7551 57.0012 64.7551 56.5734C64.7551 56.1456 64.6597 55.764 64.4688 55.4283C64.2846 55.0927 64.0279 54.8328 63.6989 54.6485C63.3698 54.4577 63.0013 54.3622 62.5933 54.3622C62.1853 54.3622 61.8168 54.4577 61.4877 54.6485C61.1587 54.8328 60.8987 55.0927 60.7079 55.4283C60.5236 55.764 60.4315 56.1456 60.4315 56.5734C60.4315 57.0012 60.5236 57.3828 60.7079 57.7185C60.8987 58.0541 61.1587 58.3173 61.4877 58.5082C61.8168 58.6924 62.1853 58.7846 62.5933 58.7846Z" fill="#323264"/>
<path d="M78.7995 60.0283L78.7896 55.8824L76.7561 59.2979H76.0355L74.0119 55.9713V60.0283H72.5115V53.1185H73.8342L76.4205 57.4125L78.9673 53.1185H80.2802L80.2999 60.0283H78.7995Z" fill="#323264"/>
<path d="M89.8659 53.1185C90.478 53.1185 91.0077 53.2205 91.4552 53.4245C91.9093 53.6285 92.2581 53.918 92.5016 54.2931C92.7451 54.6682 92.8668 55.1125 92.8668 55.6258C92.8668 56.1325 92.7451 56.5767 92.5016 56.9584C92.2581 57.3335 91.9093 57.623 91.4552 57.8271C91.0077 58.0245 90.478 58.1232 89.8659 58.1232H88.4741V60.0283H86.8749V53.1185H89.8659ZM89.7771 56.8202C90.2575 56.8202 90.6227 56.7182 90.8728 56.5142C91.1229 56.3036 91.2479 56.0074 91.2479 55.6258C91.2479 55.2375 91.1229 54.9414 90.8728 54.7373C90.6227 54.5268 90.2575 54.4215 89.7771 54.4215H88.4741V56.8202H89.7771Z" fill="#323264"/>
<path d="M103.148 58.5477H99.9396L99.3276 60.0283H97.6889L100.769 53.1185H102.348L105.438 60.0283H103.76L103.148 58.5477ZM102.644 57.3335L101.549 54.688L100.453 57.3335H102.644Z" fill="#323264"/>
<path d="M117.428 53.1185V60.0283H116.115L112.67 55.8331V60.0283H111.09V53.1185H112.413L115.848 57.3137V53.1185H117.428Z" fill="#323264"/>
<path d="M127.315 57.5803V60.0283H125.716V57.5605L123.041 53.1185H124.739L126.585 56.1884L128.43 53.1185H130L127.315 57.5803Z" fill="#323264"/>
<path fill-rule="evenodd" clip-rule="evenodd" d="M149.175 0H155L139.825 47H134L149.175 0Z" fill="#F0145A"/>
<path d="M174.408 35V30.824L174.3 30.14V23.156C174.3 21.548 173.844 20.312 172.932 19.448C172.044 18.584 170.712 18.152 168.936 18.152C167.712 18.152 166.548 18.356 165.444 18.764C164.34 19.172 163.404 19.712 162.636 20.384L161.484 18.476C162.444 17.66 163.596 17.036 164.94 16.604C166.284 16.148 167.7 15.92 169.188 15.92C171.636 15.92 173.52 16.532 174.84 17.756C176.184 18.956 176.856 20.792 176.856 23.264V35H174.408ZM167.892 35.18C166.476 35.18 165.24 34.952 164.184 34.496C163.152 34.016 162.36 33.368 161.808 32.552C161.256 31.712 160.98 30.752 160.98 29.672C160.98 28.688 161.208 27.8 161.664 27.008C162.144 26.192 162.912 25.544 163.968 25.064C165.048 24.56 166.488 24.308 168.288 24.308H174.804V26.216H168.36C166.536 26.216 165.264 26.54 164.544 27.188C163.848 27.836 163.5 28.64 163.5 29.6C163.5 30.68 163.92 31.544 164.76 32.192C165.6 32.84 166.776 33.164 168.288 33.164C169.728 33.164 170.964 32.84 171.996 32.192C173.052 31.52 173.82 30.56 174.3 29.312L174.876 31.076C174.396 32.324 173.556 33.32 172.356 34.064C171.18 34.808 169.692 35.18 167.892 35.18ZM193.554 35.18C191.898 35.18 190.41 34.808 189.09 34.064C187.77 33.296 186.726 32.192 185.958 30.752C185.19 29.312 184.806 27.572 184.806 25.532C184.806 23.468 185.19 21.728 185.958 20.312C186.75 18.872 187.806 17.78 189.126 17.036C190.446 16.292 191.922 15.92 193.554 15.92C195.354 15.92 196.962 16.328 198.378 17.144C199.818 17.936 200.946 19.052 201.762 20.492C202.578 21.932 202.986 23.612 202.986 25.532C202.986 27.428 202.578 29.108 201.762 30.572C200.946 32.012 199.818 33.14 198.378 33.956C196.962 34.772 195.354 35.18 193.554 35.18ZM183.798 35V8.288H186.354V21.68L185.994 25.496L186.246 29.312V35H183.798ZM193.374 32.912C194.718 32.912 195.918 32.612 196.974 32.012C198.03 31.388 198.87 30.524 199.494 29.42C200.118 28.292 200.43 26.996 200.43 25.532C200.43 24.044 200.118 22.748 199.494 21.644C198.87 20.54 198.03 19.688 196.974 19.088C195.918 18.464 194.718 18.152 193.374 18.152C192.03 18.152 190.818 18.464 189.738 19.088C188.682 19.688 187.842 20.54 187.218 21.644C186.618 22.748 186.318 24.044 186.318 25.532C186.318 26.996 186.618 28.292 187.218 29.42C187.842 30.524 188.682 31.388 189.738 32.012C190.818 32.612 192.03 32.912 193.374 32.912ZM215.901 35.18C214.077 35.18 212.433 34.772 210.969 33.956C209.529 33.116 208.389 31.976 207.549 30.536C206.709 29.072 206.289 27.404 206.289 25.532C206.289 23.636 206.709 21.968 207.549 20.528C208.389 19.088 209.529 17.96 210.969 17.144C212.409 16.328 214.053 15.92 215.901 15.92C217.773 15.92 219.429 16.328 220.869 17.144C222.333 17.96 223.473 19.088 224.289 20.528C225.129 21.968 225.549 23.636 225.549 25.532C225.549 27.404 225.129 29.072 224.289 30.536C223.473 31.976 222.333 33.116 220.869 33.956C219.405 34.772 217.749 35.18 215.901 35.18ZM215.901 32.912C217.269 32.912 218.481 32.612 219.537 32.012C220.593 31.388 221.421 30.524 222.021 29.42C222.645 28.292 222.957 26.996 222.957 25.532C222.957 24.044 222.645 22.748 222.021 21.644C221.421 20.54 220.593 19.688 219.537 19.088C218.481 18.464 217.281 18.152 215.937 18.152C214.593 18.152 213.393 18.464 212.337 19.088C211.281 19.688 210.441 20.54 209.817 21.644C209.193 22.748 208.881 24.044 208.881 25.532C208.881 26.996 209.193 28.292 209.817 29.42C210.441 30.524 211.281 31.388 212.337 32.012C213.393 32.612 214.581 32.912 215.901 32.912ZM238.579 35.18C236.971 35.18 235.567 34.88 234.367 34.28C233.167 33.68 232.231 32.78 231.559 31.58C230.911 30.38 230.587 28.88 230.587 27.08V16.1H233.143V26.792C233.143 28.808 233.635 30.332 234.619 31.364C235.627 32.372 237.031 32.876 238.831 32.876C240.151 32.876 241.291 32.612 242.251 32.084C243.235 31.532 243.979 30.74 244.483 29.708C245.011 28.676 245.275 27.44 245.275 26V16.1H247.831V35H245.383V29.816L245.779 30.752C245.179 32.144 244.243 33.236 242.971 34.028C241.723 34.796 240.259 35.18 238.579 35.18ZM260.931 35.18C259.155 35.18 257.787 34.7 256.827 33.74C255.867 32.78 255.387 31.424 255.387 29.672V11.924H257.943V29.528C257.943 30.632 258.219 31.484 258.771 32.084C259.347 32.684 260.163 32.984 261.219 32.984C262.347 32.984 263.283 32.66 264.027 32.012L264.927 33.848C264.423 34.304 263.811 34.64 263.091 34.856C262.395 35.072 261.675 35.18 260.931 35.18ZM252.003 18.224V16.1H263.703V18.224H252.003ZM286.814 35.18C285.206 35.18 283.802 34.88 282.602 34.28C281.402 33.68 280.466 32.78 279.794 31.58C279.146 30.38 278.822 28.88 278.822 27.08V16.1H281.378V26.792C281.378 28.808 281.87 30.332 282.854 31.364C283.862 32.372 285.266 32.876 287.066 32.876C288.386 32.876 289.526 32.612 290.486 32.084C291.47 31.532 292.214 30.74 292.718 29.708C293.246 28.676 293.51 27.44 293.51 26V16.1H296.066V35H293.617V29.816L294.014 30.752C293.414 32.144 292.478 33.236 291.206 34.028C289.958 34.796 288.494 35.18 286.814 35.18ZM308.265 35.18C306.705 35.18 305.229 34.964 303.837 34.532C302.445 34.076 301.353 33.512 300.561 32.84L301.713 30.824C302.481 31.4 303.465 31.904 304.665 32.336C305.865 32.744 307.125 32.948 308.445 32.948C310.245 32.948 311.541 32.672 312.333 32.12C313.125 31.544 313.521 30.788 313.521 29.852C313.521 29.156 313.293 28.616 312.837 28.232C312.405 27.824 311.829 27.524 311.109 27.332C310.389 27.116 309.585 26.936 308.697 26.792C307.809 26.648 306.921 26.48 306.033 26.288C305.169 26.096 304.377 25.82 303.657 25.46C302.937 25.076 302.349 24.56 301.893 23.912C301.461 23.264 301.245 22.4 301.245 21.32C301.245 20.288 301.533 19.364 302.109 18.548C302.685 17.732 303.525 17.096 304.629 16.64C305.757 16.16 307.125 15.92 308.733 15.92C309.957 15.92 311.181 16.088 312.405 16.424C313.629 16.736 314.637 17.156 315.429 17.684L314.313 19.736C313.473 19.16 312.573 18.752 311.613 18.512C310.653 18.248 309.693 18.116 308.733 18.116C307.029 18.116 305.769 18.416 304.953 19.016C304.161 19.592 303.765 20.336 303.765 21.248C303.765 21.968 303.981 22.532 304.413 22.94C304.869 23.348 305.457 23.672 306.177 23.912C306.921 24.128 307.725 24.308 308.589 24.452C309.477 24.596 310.353 24.776 311.217 24.992C312.105 25.184 312.909 25.46 313.629 25.82C314.373 26.156 314.961 26.648 315.393 27.296C315.849 27.92 316.077 28.748 316.077 29.78C316.077 30.884 315.765 31.844 315.141 32.66C314.541 33.452 313.653 34.076 312.477 34.532C311.325 34.964 309.921 35.18 308.265 35.18Z" fill="#323264"/>
</g>
<defs>
<clipPath id="clip0_123815_97">
<rect width="318" height="60" fill="white"/>
</clipPath>
</defs>
</svg>
