<svg width="33" height="25" viewBox="0 0 33 25" fill="none" xmlns="http://www.w3.org/2000/svg">
<rect width="33" height="25" rx="8" fill="white" fill-opacity="0.2"/>
<path d="M8.66598 15.416C9.12998 15.552 9.51798 15.592 9.82998 15.536C10.15 15.472 10.434 15.248 10.682 14.864L11.09 14.252L11.27 14.048L14.054 8.6H15.962L12.386 15.248C12.066 15.848 11.686 16.308 11.246 16.628C10.814 16.948 10.338 17.128 9.81798 17.168C9.29798 17.216 8.75798 17.124 8.19798 16.892L8.66598 15.416ZM11.234 15.668L7.44198 8.6H9.51798L12.302 14.24L11.234 15.668ZM23.3218 17L20.7058 12.956L22.2778 12.008L25.5298 17H23.3218ZM17.8618 17V8.6H19.7938V17H17.8618ZM19.2298 13.616V11.996H22.1578V13.616H19.2298ZM22.4578 13.016L20.6698 12.8L23.3938 8.6H25.4458L22.4578 13.016Z" fill="white"/>
</svg>
