<svg width="169" height="57" viewBox="0 0 169 57" fill="none" xmlns="http://www.w3.org/2000/svg">
<g clip-path="url(#clip0_122065_959)">
<path d="M2.64358 15H0V34.0926H2.64358V27.0094C2.64358 25.8111 2.94163 24.8658 3.53774 24.2001C4.13384 23.5344 4.95024 23.1882 5.96102 23.1882C6.82926 23.1882 7.55495 23.5078 8.13809 24.1202C8.72123 24.746 9.01929 25.5315 9.01929 26.4769V34.1059H11.6758V26.4769C11.6758 24.7194 11.1964 23.3347 10.2374 22.2962C9.27846 21.2577 8.02146 20.7384 6.49233 20.7384C6.05173 20.7384 5.61114 20.7917 5.1835 20.9115C4.7429 21.0313 4.39301 21.1645 4.10792 21.3109C3.82283 21.4574 3.5507 21.6172 3.30448 21.8036C3.05826 21.99 2.8898 22.1231 2.81205 22.203C2.7343 22.2829 2.6695 22.3361 2.64358 22.3761V15Z" fill="#F0145A"/>
<path d="M17.5856 15H14.8604V34.0767H17.5856V15Z" fill="white"/>
<path d="M33.6598 28.4896L33.796 27.127C33.796 25.3011 33.1965 23.7749 31.9701 22.5486C30.7438 21.3222 29.2176 20.7227 27.3917 20.7227C25.5658 20.7227 23.9851 21.3767 22.677 22.6848C21.3689 23.993 20.7148 25.5463 20.7148 27.3995C20.7148 29.3072 21.3962 30.9423 22.7315 32.305C24.0669 33.6676 25.6748 34.3489 27.528 34.3489C28.2365 34.3489 28.8906 34.2399 29.5446 34.0491C30.1987 33.8311 30.7438 33.6131 31.1253 33.3951C31.5341 33.1498 31.9429 32.8773 32.2971 32.5775C32.6514 32.2777 32.8967 32.0597 33.0057 31.9234C33.1147 31.7872 33.1965 31.7054 33.251 31.6236L31.4796 29.8522L31.0708 30.37C30.7983 30.6971 30.335 31.0241 29.6809 31.3784C28.9996 31.7327 28.291 31.8962 27.528 31.8962C26.4651 31.8962 25.5658 31.5691 24.8027 30.8878C24.0396 30.2065 23.5764 29.4162 23.4401 28.4896H33.6598ZM27.3917 23.0391C28.4 23.0391 29.2176 23.3389 29.8989 23.9112C30.553 24.5108 30.9618 25.2466 31.1253 26.1732H23.5491C23.7944 25.2466 24.2304 24.5108 24.9117 23.9112C25.5658 23.3389 26.4106 23.0391 27.3917 23.0391Z" fill="white"/>
<path d="M46.3695 33.286C46.3695 34.4852 46.0153 35.4662 45.2794 36.2293C44.5709 36.9651 43.6715 37.3467 42.5542 37.3467C42.0637 37.3467 41.5731 37.2649 41.1098 37.1286C40.6465 36.9924 40.2922 36.8289 39.9925 36.6381C39.6927 36.4473 39.4202 36.2566 39.1476 36.0113C38.9024 35.766 38.7389 35.6025 38.6571 35.5207C38.5753 35.439 38.5208 35.3572 38.4663 35.3027L36.6949 37.0741L36.9129 37.3467C37.0492 37.5374 37.2945 37.7827 37.6215 38.0552C37.9485 38.3005 38.3301 38.573 38.7661 38.8455C39.2021 39.0908 39.7472 39.3088 40.4285 39.4996C41.1098 39.6904 41.8184 39.7994 42.5542 39.7994C44.4074 39.7994 45.9335 39.1726 47.2144 37.919C48.468 36.6381 49.0948 35.112 49.0948 33.2588V20.9952H46.3695V22.3578L45.9063 21.949C45.6065 21.6765 45.1432 21.404 44.4891 21.1314C43.8351 20.8589 43.1265 20.7227 42.4179 20.7227C40.7555 20.7227 39.3384 21.3495 38.112 22.6303C36.8857 23.9112 36.2861 25.4373 36.2861 27.2632C36.2861 29.0892 36.8857 30.6153 38.112 31.8962C39.3384 33.177 40.7555 33.8038 42.4179 33.8038C42.8812 33.8038 43.3173 33.7493 43.7806 33.6403C44.2166 33.5041 44.5709 33.3678 44.8707 33.2315C45.1704 33.0953 45.443 32.9318 45.6882 32.741C45.9335 32.5502 46.1243 32.414 46.1788 32.3595L46.3695 32.1687V33.286ZM39.0114 27.2632C39.0114 26.1186 39.3657 25.1648 40.1015 24.3745C40.8373 23.5842 41.7094 23.1754 42.6905 23.1754C43.6715 23.1754 44.5436 23.5842 45.2794 24.3745C45.988 25.1648 46.3695 26.1186 46.3695 27.2632C46.3695 28.4079 45.988 29.3617 45.2794 30.152C44.5436 30.9423 43.6715 31.3511 42.6905 31.3511C41.7094 31.3511 40.8373 30.9423 40.1015 30.152C39.3657 29.3617 39.0114 28.4079 39.0114 27.2632Z" fill="white"/>
<path d="M63.3195 34.0764V25.6281C63.3195 24.2382 62.8017 23.0664 61.7934 22.1398C60.7851 21.1859 59.4769 20.7227 57.869 20.7227C57.2422 20.7227 56.6154 20.8044 56.0159 20.9679C55.4163 21.1587 54.9258 21.3495 54.5715 21.5675C54.2172 21.7855 53.8629 22.0308 53.5359 22.3306C53.2089 22.6031 53.0181 22.7938 52.9091 22.9029C52.8273 23.0119 52.7456 23.0936 52.6911 23.1754L54.4625 24.9468L54.8168 24.4835C55.0348 24.1837 55.4163 23.9112 55.9886 23.6114C56.5609 23.3116 57.1877 23.1754 57.869 23.1754C58.6594 23.1754 59.3134 23.4207 59.8312 23.8839C60.349 24.3472 60.5943 24.9468 60.5943 25.6281L55.8251 26.4457C54.6533 26.6364 53.6994 27.0997 53.0454 27.8356C52.364 28.5714 52.0098 29.4707 52.0098 30.5335C52.0098 31.5419 52.4458 32.414 53.3179 33.177C54.2172 33.9674 55.3073 34.3489 56.6427 34.3489C57.106 34.3489 57.542 34.2944 57.9781 34.1581C58.4413 34.0491 58.7956 33.9129 59.0954 33.7766C59.3952 33.6403 59.6677 33.4768 59.913 33.286C60.1582 33.0953 60.3218 32.959 60.4308 32.9045C60.5125 32.8228 60.567 32.741 60.5943 32.7137V34.0764H63.3195ZM57.0515 31.8962C56.3429 31.8962 55.7706 31.7327 55.3618 31.4056C54.9258 31.0786 54.735 30.6971 54.735 30.261C54.735 29.7977 54.8713 29.3889 55.1711 29.0892C55.4708 28.7894 55.8796 28.5714 56.3702 28.4896L60.5943 27.8083V28.0808C60.5943 29.3072 60.2945 30.2338 59.6677 30.9151C59.0409 31.5691 58.1688 31.8962 57.0515 31.8962Z" fill="white"/>
<path d="M69.3337 15H66.6084V34.0767H69.3337V15Z" fill="white"/>
<path d="M0 43.3308H0.852878V46.3211H2.70078V47.016H0V43.3308Z" fill="white"/>
<path d="M8.26752 46.2263H6.5565L6.23009 47.016H5.35615L6.99873 43.3308H7.84108L9.48893 47.016H8.59393L8.26752 46.2263ZM7.99902 45.5788L7.41464 44.1678L6.83026 45.5788H7.99902Z" fill="white"/>
<path d="M17.8731 43.3308L16.6675 47.016H15.7515L14.9407 44.5206L14.1036 47.016H13.1928L11.982 43.3308H12.8664L13.6982 45.921L14.5669 43.3308H15.3566L16.199 45.942L17.0571 43.3308H17.8731Z" fill="white"/>
<path d="M26.9457 47.0792C26.5702 47.0792 26.2297 46.9985 25.9244 46.837C25.6225 46.6721 25.3838 46.4457 25.2084 46.1579C25.0364 45.8666 24.9504 45.5384 24.9504 45.1734C24.9504 44.8084 25.0364 44.482 25.2084 44.1942C25.3838 43.9028 25.6225 43.6765 25.9244 43.515C26.2297 43.3501 26.5719 43.2676 26.951 43.2676C27.2704 43.2676 27.5582 43.3237 27.8144 43.436C28.0741 43.5484 28.2917 43.7098 28.4672 43.9204L27.9197 44.4258C27.6705 44.138 27.3616 43.9941 26.9931 43.9941C26.7649 43.9941 26.5614 44.045 26.3824 44.1468C26.2034 44.2451 26.063 44.3837 25.9612 44.5627C25.8629 44.7417 25.8138 44.9453 25.8138 45.1734C25.8138 45.4015 25.8629 45.6051 25.9612 45.7841C26.063 45.9631 26.2034 46.1035 26.3824 46.2053C26.5614 46.3035 26.7649 46.3527 26.9931 46.3527C27.3616 46.3527 27.6705 46.207 27.9197 45.9157L28.4672 46.4211C28.2917 46.6352 28.0741 46.7984 27.8144 46.9107C27.5547 47.0231 27.2651 47.0792 26.9457 47.0792Z" fill="white"/>
<path d="M33.3831 47.0792C33.0005 47.0792 32.6548 46.9967 32.3459 46.8318C32.0406 46.6668 31.8002 46.4404 31.6247 46.1526C31.4527 45.8613 31.3667 45.5349 31.3667 45.1734C31.3667 44.8119 31.4527 44.4872 31.6247 44.1994C31.8002 43.9081 32.0406 43.68 32.3459 43.515C32.6548 43.3501 33.0005 43.2676 33.3831 43.2676C33.7657 43.2676 34.1096 43.3501 34.415 43.515C34.7203 43.68 34.9607 43.9081 35.1362 44.1994C35.3117 44.4872 35.3995 44.8119 35.3995 45.1734C35.3995 45.5349 35.3117 45.8613 35.1362 46.1526C34.9607 46.4404 34.7203 46.6668 34.415 46.8318C34.1096 46.9967 33.7657 47.0792 33.3831 47.0792ZM33.3831 46.3527C33.6007 46.3527 33.7972 46.3035 33.9727 46.2053C34.1482 46.1035 34.2851 45.9631 34.3834 45.7841C34.4852 45.6051 34.5361 45.4015 34.5361 45.1734C34.5361 44.9453 34.4852 44.7417 34.3834 44.5627C34.2851 44.3837 34.1482 44.2451 33.9727 44.1468C33.7972 44.045 33.6007 43.9941 33.3831 43.9941C33.1655 43.9941 32.9689 44.045 32.7934 44.1468C32.618 44.2451 32.4793 44.3837 32.3775 44.5627C32.2793 44.7417 32.2301 44.9453 32.2301 45.1734C32.2301 45.4015 32.2793 45.6051 32.3775 45.7841C32.4793 45.9631 32.618 46.1035 32.7934 46.2053C32.9689 46.3035 33.1655 46.3527 33.3831 46.3527Z" fill="white"/>
<path d="M42.0264 47.016L42.0211 44.8049L40.9366 46.6264H40.5523L39.473 44.8522V47.016H38.6728V43.3308H39.3782L40.7576 45.6209L42.1159 43.3308H42.8161L42.8266 47.016H42.0264Z" fill="white"/>
<path d="M47.9285 43.3308C48.2549 43.3308 48.5374 43.3852 48.7761 43.494C49.0183 43.6028 49.2043 43.7572 49.3342 43.9573C49.464 44.1573 49.529 44.3942 49.529 44.668C49.529 44.9382 49.464 45.1751 49.3342 45.3787C49.2043 45.5788 49.0183 45.7332 48.7761 45.842C48.5374 45.9473 48.2549 45.9999 47.9285 45.9999H47.1862V47.016H46.3333V43.3308H47.9285ZM47.8811 45.305C48.1373 45.305 48.3321 45.2506 48.4655 45.1418C48.5989 45.0295 48.6656 44.8716 48.6656 44.668C48.6656 44.4609 48.5989 44.303 48.4655 44.1942C48.3321 44.0818 48.1373 44.0257 47.8811 44.0257H47.1862V45.305H47.8811Z" fill="white"/>
<path d="M55.0121 46.2263H53.3011L52.9747 47.016H52.1008L53.7433 43.3308H54.5857L56.2335 47.016H55.3385L55.0121 46.2263ZM54.7436 45.5788L54.1592 44.1678L53.5749 45.5788H54.7436Z" fill="white"/>
<path d="M62.6281 43.3308V47.016H61.9279L60.0906 44.7785V47.016H59.2482V43.3308H59.9537L61.7858 45.5682V43.3308H62.6281Z" fill="white"/>
<path d="M67.9013 45.7104V47.016H67.0485V45.6999L65.6217 43.3308H66.5273L67.5117 44.9681L68.4963 43.3308H69.3333L67.9013 45.7104Z" fill="white"/>
<path fill-rule="evenodd" clip-rule="evenodd" d="M81.7283 15H84.9505L76.5557 41H73.3335L81.7283 15Z" fill="#F0145A"/>
<path d="M93.7502 34.1C92.8835 34.1 92.0635 33.98 91.2902 33.74C90.5169 33.4867 89.9102 33.1733 89.4702 32.8L90.1102 31.68C90.5369 32 91.0835 32.28 91.7502 32.52C92.4169 32.7467 93.1169 32.86 93.8502 32.86C94.8502 32.86 95.5702 32.7067 96.0102 32.4C96.4502 32.08 96.6702 31.66 96.6702 31.14C96.6702 30.7533 96.5435 30.4533 96.2902 30.24C96.0502 30.0133 95.7302 29.8467 95.3302 29.74C94.9302 29.62 94.4835 29.52 93.9902 29.44C93.4969 29.36 93.0035 29.2667 92.5102 29.16C92.0302 29.0533 91.5902 28.9 91.1902 28.7C90.7902 28.4867 90.4635 28.2 90.2102 27.84C89.9702 27.48 89.8502 27 89.8502 26.4C89.8502 25.8267 90.0102 25.3133 90.3302 24.86C90.6502 24.4067 91.1169 24.0533 91.7302 23.8C92.3569 23.5333 93.1169 23.4 94.0102 23.4C94.6902 23.4 95.3702 23.4933 96.0502 23.68C96.7302 23.8533 97.2902 24.0867 97.7302 24.38L97.1102 25.52C96.6435 25.2 96.1435 24.9733 95.6102 24.84C95.0769 24.6933 94.5435 24.62 94.0102 24.62C93.0635 24.62 92.3635 24.7867 91.9102 25.12C91.4702 25.44 91.2502 25.8533 91.2502 26.36C91.2502 26.76 91.3702 27.0733 91.6102 27.3C91.8635 27.5267 92.1902 27.7067 92.5902 27.84C93.0035 27.96 93.4502 28.06 93.9302 28.14C94.4235 28.22 94.9102 28.32 95.3902 28.44C95.8835 28.5467 96.3302 28.7 96.7302 28.9C97.1435 29.0867 97.4702 29.36 97.7102 29.72C97.9635 30.0667 98.0902 30.5267 98.0902 31.1C98.0902 31.7133 97.9169 32.2467 97.5702 32.7C97.2369 33.14 96.7435 33.4867 96.0902 33.74C95.4502 33.98 94.6702 34.1 93.7502 34.1ZM105.156 34.1C104.062 34.1 103.102 33.8733 102.276 33.42C101.449 32.9533 100.802 32.32 100.336 31.52C99.8692 30.7067 99.6358 29.78 99.6358 28.74C99.6358 27.7 99.8558 26.78 100.296 25.98C100.749 25.18 101.362 24.5533 102.136 24.1C102.922 23.6333 103.802 23.4 104.776 23.4C105.762 23.4 106.636 23.6267 107.396 24.08C108.169 24.52 108.776 25.1467 109.216 25.96C109.656 26.76 109.876 27.6867 109.876 28.74C109.876 28.8067 109.869 28.88 109.856 28.96C109.856 29.0267 109.856 29.1 109.856 29.18H100.716V28.12H109.096L108.536 28.54C108.536 27.78 108.369 27.1067 108.036 26.52C107.716 25.92 107.276 25.4533 106.716 25.12C106.156 24.7867 105.509 24.62 104.776 24.62C104.056 24.62 103.409 24.7867 102.836 25.12C102.262 25.4533 101.816 25.92 101.496 26.52C101.176 27.12 101.016 27.8067 101.016 28.58V28.8C101.016 29.6 101.189 30.3067 101.536 30.92C101.896 31.52 102.389 31.9933 103.016 32.34C103.656 32.6733 104.382 32.84 105.196 32.84C105.836 32.84 106.429 32.7267 106.976 32.5C107.536 32.2733 108.016 31.9267 108.416 31.46L109.216 32.38C108.749 32.94 108.162 33.3667 107.456 33.66C106.762 33.9533 105.996 34.1 105.156 34.1ZM112.766 34V23.5H114.126V26.36L113.986 25.86C114.279 25.06 114.773 24.4533 115.466 24.04C116.159 23.6133 117.019 23.4 118.046 23.4V24.78C117.993 24.78 117.939 24.78 117.886 24.78C117.833 24.7667 117.779 24.76 117.726 24.76C116.619 24.76 115.753 25.1 115.126 25.78C114.499 26.4467 114.186 27.4 114.186 28.64V34H112.766ZM123.786 34L119.126 23.5H120.606L124.886 33.24H124.186L128.526 23.5H129.926L125.246 34H123.786ZM131.926 34V23.5H133.346V34H131.926ZM132.646 21.18C132.353 21.18 132.106 21.08 131.906 20.88C131.706 20.68 131.606 20.44 131.606 20.16C131.606 19.88 131.706 19.6467 131.906 19.46C132.106 19.26 132.353 19.16 132.646 19.16C132.94 19.16 133.186 19.2533 133.386 19.44C133.586 19.6267 133.686 19.86 133.686 20.14C133.686 20.4333 133.586 20.68 133.386 20.88C133.2 21.08 132.953 21.18 132.646 21.18ZM141.657 34.1C140.617 34.1 139.684 33.8733 138.857 33.42C138.044 32.9533 137.404 32.32 136.937 31.52C136.471 30.7067 136.237 29.78 136.237 28.74C136.237 27.6867 136.471 26.76 136.937 25.96C137.404 25.16 138.044 24.5333 138.857 24.08C139.684 23.6267 140.617 23.4 141.657 23.4C142.551 23.4 143.357 23.5733 144.077 23.92C144.797 24.2667 145.364 24.7867 145.777 25.48L144.717 26.2C144.357 25.6667 143.911 25.2733 143.377 25.02C142.844 24.7667 142.264 24.64 141.637 24.64C140.891 24.64 140.217 24.8133 139.617 25.16C139.017 25.4933 138.544 25.9667 138.197 26.58C137.851 27.1933 137.677 27.9133 137.677 28.74C137.677 29.5667 137.851 30.2867 138.197 30.9C138.544 31.5133 139.017 31.9933 139.617 32.34C140.217 32.6733 140.891 32.84 141.637 32.84C142.264 32.84 142.844 32.7133 143.377 32.46C143.911 32.2067 144.357 31.82 144.717 31.3L145.777 32.02C145.364 32.7 144.797 33.22 144.077 33.58C143.357 33.9267 142.551 34.1 141.657 34.1ZM152.851 34.1C151.758 34.1 150.798 33.8733 149.971 33.42C149.144 32.9533 148.498 32.32 148.031 31.52C147.564 30.7067 147.331 29.78 147.331 28.74C147.331 27.7 147.551 26.78 147.991 25.98C148.444 25.18 149.058 24.5533 149.831 24.1C150.618 23.6333 151.498 23.4 152.471 23.4C153.458 23.4 154.331 23.6267 155.091 24.08C155.864 24.52 156.471 25.1467 156.911 25.96C157.351 26.76 157.571 27.6867 157.571 28.74C157.571 28.8067 157.564 28.88 157.551 28.96C157.551 29.0267 157.551 29.1 157.551 29.18H148.411V28.12H156.791L156.231 28.54C156.231 27.78 156.064 27.1067 155.731 26.52C155.411 25.92 154.971 25.4533 154.411 25.12C153.851 24.7867 153.204 24.62 152.471 24.62C151.751 24.62 151.104 24.7867 150.531 25.12C149.958 25.4533 149.511 25.92 149.191 26.52C148.871 27.12 148.711 27.8067 148.711 28.58V28.8C148.711 29.6 148.884 30.3067 149.231 30.92C149.591 31.52 150.084 31.9933 150.711 32.34C151.351 32.6733 152.078 32.84 152.891 32.84C153.531 32.84 154.124 32.7267 154.671 32.5C155.231 32.2733 155.711 31.9267 156.111 31.46L156.911 32.38C156.444 32.94 155.858 33.3667 155.151 33.66C154.458 33.9533 153.691 34.1 152.851 34.1ZM163.281 34.1C162.415 34.1 161.595 33.98 160.821 33.74C160.048 33.4867 159.441 33.1733 159.001 32.8L159.641 31.68C160.068 32 160.615 32.28 161.281 32.52C161.948 32.7467 162.648 32.86 163.381 32.86C164.381 32.86 165.101 32.7067 165.541 32.4C165.981 32.08 166.201 31.66 166.201 31.14C166.201 30.7533 166.075 30.4533 165.821 30.24C165.581 30.0133 165.261 29.8467 164.861 29.74C164.461 29.62 164.015 29.52 163.521 29.44C163.028 29.36 162.535 29.2667 162.041 29.16C161.561 29.0533 161.121 28.9 160.721 28.7C160.321 28.4867 159.995 28.2 159.741 27.84C159.501 27.48 159.381 27 159.381 26.4C159.381 25.8267 159.541 25.3133 159.861 24.86C160.181 24.4067 160.648 24.0533 161.261 23.8C161.888 23.5333 162.648 23.4 163.541 23.4C164.221 23.4 164.901 23.4933 165.581 23.68C166.261 23.8533 166.821 24.0867 167.261 24.38L166.641 25.52C166.175 25.2 165.675 24.9733 165.141 24.84C164.608 24.6933 164.075 24.62 163.541 24.62C162.595 24.62 161.895 24.7867 161.441 25.12C161.001 25.44 160.781 25.8533 160.781 26.36C160.781 26.76 160.901 27.0733 161.141 27.3C161.395 27.5267 161.721 27.7067 162.121 27.84C162.535 27.96 162.981 28.06 163.461 28.14C163.955 28.22 164.441 28.32 164.921 28.44C165.415 28.5467 165.861 28.7 166.261 28.9C166.675 29.0867 167.001 29.36 167.241 29.72C167.495 30.0667 167.621 30.5267 167.621 31.1C167.621 31.7133 167.448 32.2467 167.101 32.7C166.768 33.14 166.275 33.4867 165.621 33.74C164.981 33.98 164.201 34.1 163.281 34.1Z" fill="white"/>
</g>
<defs>
<clipPath id="clip0_122065_959">
<rect width="168.95" height="57" fill="white"/>
</clipPath>
</defs>
</svg>
