<svg width="33" height="25" viewBox="0 0 33 25" fill="none" xmlns="http://www.w3.org/2000/svg">
<path d="M8.51275 17V8.6H12.1488C12.9008 8.6 13.5488 8.724 14.0928 8.972C14.6368 9.212 15.0568 9.56 15.3528 10.016C15.6488 10.472 15.7968 11.016 15.7968 11.648C15.7968 12.272 15.6488 12.812 15.3528 13.268C15.0568 13.724 14.6368 14.076 14.0928 14.324C13.5488 14.564 12.9008 14.684 12.1488 14.684H9.59275L10.4568 13.808V17H8.51275ZM10.4568 14.024L9.59275 13.1H12.0408C12.6408 13.1 13.0888 12.972 13.3848 12.716C13.6808 12.46 13.8288 12.104 13.8288 11.648C13.8288 11.184 13.6808 10.824 13.3848 10.568C13.0888 10.312 12.6408 10.184 12.0408 10.184H9.59275L10.4568 9.26V14.024ZM18.1797 15.416C18.6437 15.552 19.0317 15.592 19.3437 15.536C19.6637 15.472 19.9477 15.248 20.1957 14.864L20.6037 14.252L20.7837 14.048L23.5677 8.6H25.4757L21.8997 15.248C21.5797 15.848 21.1997 16.308 20.7597 16.628C20.3277 16.948 19.8517 17.128 19.3317 17.168C18.8117 17.216 18.2717 17.124 17.7117 16.892L18.1797 15.416ZM20.7477 15.668L16.9557 8.6H19.0317L21.8157 14.24L20.7477 15.668Z" fill="white"/>
</svg>
